<svg aria-hidden="true" style="position: absolute; width: 0; height: 0; overflow: hidden;" version="1.1" xmlns="http://www.w3.org/2000/svg" xmlns:xlink="http://www.w3.org/1999/xlink">
<defs>
<symbol id="icon-info" viewBox="0 0 32 32">
<path d="M16 1.28c-8.122 0-14.72 6.598-14.72 14.72s6.598 14.72 14.72 14.72c8.122 0 14.72-6.598 14.72-14.72s-6.598-14.72-14.72-14.72zM16 2.56c7.43 0 13.44 6.010 13.44 13.44s-6.010 13.44-13.44 13.44c-7.43 0-13.44-6.010-13.44-13.44s6.010-13.44 13.44-13.44zM16 7.040c-1.060 0-1.92 0.86-1.92 1.92v0c0 1.060 0.86 1.92 1.92 1.92v0c1.060 0 1.92-0.86 1.92-1.92v0c0-1.060-0.86-1.92-1.92-1.92v0zM13.44 13.44v1.28h1.28v8.32h-1.28v1.28h5.12v-1.28h-1.28v-9.6h-3.84z"></path>
</symbol>
</defs>
</svg>
